<svg width="640" height="640" viewBox="0 0 640 640" fill="none" xmlns="http://www.w3.org/2000/svg">
    <path d="M64 176C64 149.5 85.5 128 112 128H304C330.5 128 352 149.5 352 176V272C352 298.5 330.5 320 304 320H112C85.5 320 64 298.5 64 272V176ZM416 176C416 149.5 437.5 128 464 128H528C554.5 128 576 149.5 576 176V432C576 458.5 554.5 480 528 480H464C437.5 480 416 458.5 416 432V176ZM176 384H304C330.5 384 352 405.5 352 432V496C352 522.5 330.5 544 304 544H176C149.5 544 128 522.5 128 496V432C128 405.5 149.5 384 176 384Z"
          fill="#76DDAA"/>
</svg>
